<svg width="280" height="140" viewBox="0 0 280 140" fill="none" xmlns="http://www.w3.org/2000/svg">
<rect width="280" height="140" fill="white"/>
<rect width="280" height="140" fill="#F4F5F7"/>
<g filter="url(#filter0_dd)">
<path d="M90 44C90 41.7909 91.7909 40 94 40H186C188.209 40 190 41.7909 190 44V97C190 99.2091 188.209 101 186 101H94C91.7909 101 90 99.2091 90 97V44Z" fill="white"/>
<path d="M94 39.5C91.5147 39.5 89.5 41.5147 89.5 44V97C89.5 99.4853 91.5147 101.5 94 101.5H186C188.485 101.5 190.5 99.4853 190.5 97V44C190.5 41.5147 188.485 39.5 186 39.5H94Z" stroke="black" stroke-opacity="0.04"/>
</g>
<path d="M180 48L182 50L180 52" stroke="#9FA6B2" stroke-linecap="round" stroke-linejoin="round"/>
<path d="M180 68L182 70L180 72" stroke="#9FA6B2" stroke-linecap="round" stroke-linejoin="round"/>
<path d="M180 88L182 90L180 92" stroke="#9FA6B2" stroke-linecap="round" stroke-linejoin="round"/>
<rect x="97" y="47" width="30" height="2" rx="1" fill="#9FA6B2"/>
<rect x="97" y="67" width="40" height="2" rx="1" fill="#9FA6B2"/>
<rect x="97" y="87" width="35" height="2" rx="1" fill="#9FA6B2"/>
<rect x="97" y="52" width="24" height="2" rx="1" fill="#D2D6DC"/>
<rect x="97" y="72" width="20" height="2" rx="1" fill="#D2D6DC"/>
<rect x="97" y="92" width="25" height="2" rx="1" fill="#D2D6DC"/>
<rect x="90" y="60" width="100" height="1" fill="#E5E7EB"/>
<rect x="90" y="80" width="100" height="1" fill="#E5E7EB"/>
<defs>
<filter id="filter0_dd" x="84" y="37" width="112" height="73" filterUnits="userSpaceOnUse" color-interpolation-filters="sRGB">
<feFlood flood-opacity="0" result="BackgroundImageFix"/>
<feColorMatrix in="SourceAlpha" type="matrix" values="0 0 0 0 0 0 0 0 0 0 0 0 0 0 0 0 0 0 127 0"/>
<feOffset dy="3"/>
<feGaussianBlur stdDeviation="2.5"/>
<feColorMatrix type="matrix" values="0 0 0 0 0 0 0 0 0 0 0 0 0 0 0 0 0 0 0.04 0"/>
<feBlend mode="normal" in2="BackgroundImageFix" result="effect1_dropShadow"/>
<feColorMatrix in="SourceAlpha" type="matrix" values="0 0 0 0 0 0 0 0 0 0 0 0 0 0 0 0 0 0 127 0"/>
<feOffset dy="1"/>
<feGaussianBlur stdDeviation="1"/>
<feColorMatrix type="matrix" values="0 0 0 0 0 0 0 0 0 0 0 0 0 0 0 0 0 0 0.03 0"/>
<feBlend mode="normal" in2="effect1_dropShadow" result="effect2_dropShadow"/>
<feBlend mode="normal" in="SourceGraphic" in2="effect2_dropShadow" result="shape"/>
</filter>
</defs>
</svg>
