<svg width="280" height="140" viewBox="0 0 280 140" fill="none" xmlns="http://www.w3.org/2000/svg">
<rect width="280" height="140" fill="white"/>
<rect width="280" height="140" fill="#F4F5F7"/>
<g filter="url(#filter0_dd)">
<path d="M38 30C38 27.7909 39.7909 26 42 26H238C240.209 26 242 27.7909 242 30V110C242 112.209 240.209 114 238 114H42C39.7909 114 38 112.209 38 110V30Z" fill="white"/>
<path d="M238 25.5H42C39.5147 25.5 37.5 27.5147 37.5 30V110C37.5 112.485 39.5147 114.5 42 114.5H238C240.485 114.5 242.5 112.485 242.5 110V30C242.5 27.5147 240.485 25.5 238 25.5Z" stroke="black" stroke-opacity="0.04"/>
</g>
<path d="M38 30C38 27.7909 39.7909 26 42 26H238C240.209 26 242 27.7909 242 30V37H38V30Z" fill="#F9FAFB"/>
<rect x="46" y="42" width="23" height="2" rx="1" fill="#9FA6B2"/>
<rect x="46" y="30" width="23" height="2" rx="1" fill="#D2D6DC"/>
<rect x="46" y="55" width="29" height="2" rx="1" fill="#9FA6B2"/>
<rect x="46" y="68" width="27" height="2" rx="1" fill="#9FA6B2"/>
<rect x="46" y="81" width="23" height="2" rx="1" fill="#9FA6B2"/>
<rect x="118" y="42" width="20" height="2" rx="1" fill="#9FA6B2"/>
<rect x="118" y="30" width="20" height="2" rx="1" fill="#D2D6DC"/>
<rect x="118" y="55" width="28" height="2" rx="1" fill="#9FA6B2"/>
<rect x="118" y="68" width="18" height="2" rx="1" fill="#9FA6B2"/>
<rect x="118" y="81" width="25" height="2" rx="1" fill="#9FA6B2"/>
<rect x="188" y="42" width="21" height="2" rx="1" fill="#9FA6B2"/>
<rect x="188" y="30" width="21" height="2" rx="1" fill="#D2D6DC"/>
<rect x="188" y="55" width="27" height="2" rx="1" fill="#9FA6B2"/>
<rect x="188" y="68" width="21" height="2" rx="1" fill="#9FA6B2"/>
<rect x="188" y="81" width="24" height="2" rx="1" fill="#9FA6B2"/>
<rect x="38" y="49" width="204" height="1" fill="#E5E7EB"/>
<rect x="38" y="36" width="204" height="1" fill="#D2D6DC"/>
<rect x="38" y="62" width="204" height="1" fill="#E5E7EB"/>
<rect x="38" y="75" width="204" height="1" fill="#E5E7EB"/>
<rect x="46" y="94" width="31" height="2" rx="1" fill="#9FA6B2"/>
<rect x="118" y="94" width="22" height="2" rx="1" fill="#9FA6B2"/>
<rect x="188" y="94" width="27" height="2" rx="1" fill="#9FA6B2"/>
<rect x="38" y="88" width="204" height="1" fill="#E5E7EB"/>
<rect x="46" y="107" width="26" height="2" rx="1" fill="#9FA6B2"/>
<rect x="118" y="107" width="25" height="2" rx="1" fill="#9FA6B2"/>
<rect x="188" y="107" width="20" height="2" rx="1" fill="#9FA6B2"/>
<rect x="38" y="101" width="204" height="1" fill="#E5E7EB"/>
<defs>
<filter id="filter0_dd" x="32" y="23" width="216" height="100" filterUnits="userSpaceOnUse" color-interpolation-filters="sRGB">
<feFlood flood-opacity="0" result="BackgroundImageFix"/>
<feColorMatrix in="SourceAlpha" type="matrix" values="0 0 0 0 0 0 0 0 0 0 0 0 0 0 0 0 0 0 127 0"/>
<feOffset dy="3"/>
<feGaussianBlur stdDeviation="2.5"/>
<feColorMatrix type="matrix" values="0 0 0 0 0 0 0 0 0 0 0 0 0 0 0 0 0 0 0.04 0"/>
<feBlend mode="normal" in2="BackgroundImageFix" result="effect1_dropShadow"/>
<feColorMatrix in="SourceAlpha" type="matrix" values="0 0 0 0 0 0 0 0 0 0 0 0 0 0 0 0 0 0 127 0"/>
<feOffset dy="1"/>
<feGaussianBlur stdDeviation="1"/>
<feColorMatrix type="matrix" values="0 0 0 0 0 0 0 0 0 0 0 0 0 0 0 0 0 0 0.03 0"/>
<feBlend mode="normal" in2="effect1_dropShadow" result="effect2_dropShadow"/>
<feBlend mode="normal" in="SourceGraphic" in2="effect2_dropShadow" result="shape"/>
</filter>
</defs>
</svg>
