<svg width="280" height="140" viewBox="0 0 280 140" fill="none" xmlns="http://www.w3.org/2000/svg">
<g clip-path="url(#clip0)">
<rect width="280" height="140" fill="white"/>
<rect width="280" height="140" fill="#F4F5F7"/>
<g filter="url(#filter0_dd)">
<path d="M0 26H280V114H0V26Z" fill="white"/>
<path d="M0 25.5H-0.5V26V114V114.5H0H280H280.5V114V26V25.5H280H0Z" stroke="black" stroke-opacity="0.04"/>
</g>
<path d="M0 26H280V37H0V26Z" fill="#F9FAFB"/>
<rect y="49" width="280" height="1" fill="#E5E7EB"/>
<rect y="36" width="280" height="1" fill="#D2D6DC"/>
<rect y="62" width="280" height="1" fill="#E5E7EB"/>
<rect y="75" width="280" height="1" fill="#E5E7EB"/>
<rect y="88" width="280" height="1" fill="#E5E7EB"/>
<rect x="8" y="42" width="23" height="2" rx="1" fill="#9FA6B2"/>
<rect x="8" y="30" width="23" height="2" rx="1" fill="#D2D6DC"/>
<rect x="8" y="55" width="29" height="2" rx="1" fill="#9FA6B2"/>
<rect x="8" y="68" width="27" height="2" rx="1" fill="#9FA6B2"/>
<rect x="8" y="81" width="23" height="2" rx="1" fill="#9FA6B2"/>
<rect x="8" y="94" width="31" height="2" rx="1" fill="#9FA6B2"/>
<rect x="8" y="107" width="26" height="2" rx="1" fill="#9FA6B2"/>
<rect x="78" y="42" width="20" height="2" rx="1" fill="#9FA6B2"/>
<rect x="78" y="30" width="20" height="2" rx="1" fill="#D2D6DC"/>
<rect x="78" y="55" width="28" height="2" rx="1" fill="#9FA6B2"/>
<rect x="78" y="68" width="18" height="2" rx="1" fill="#9FA6B2"/>
<rect x="78" y="81" width="25" height="2" rx="1" fill="#9FA6B2"/>
<rect x="78" y="94" width="22" height="2" rx="1" fill="#9FA6B2"/>
<rect x="78" y="107" width="25" height="2" rx="1" fill="#9FA6B2"/>
<rect x="145" y="42" width="21" height="2" rx="1" fill="#9FA6B2"/>
<rect x="145" y="30" width="21" height="2" rx="1" fill="#D2D6DC"/>
<rect x="145" y="55" width="27" height="2" rx="1" fill="#9FA6B2"/>
<rect x="145" y="68" width="21" height="2" rx="1" fill="#9FA6B2"/>
<rect x="145" y="81" width="24" height="2" rx="1" fill="#9FA6B2"/>
<rect x="145" y="94" width="27" height="2" rx="1" fill="#9FA6B2"/>
<rect x="145" y="107" width="20" height="2" rx="1" fill="#9FA6B2"/>
<rect x="211" y="42" width="23" height="2" rx="1" fill="#9FA6B2"/>
<rect x="211" y="30" width="23" height="2" rx="1" fill="#D2D6DC"/>
<rect x="211" y="55" width="26" height="2" rx="1" fill="#9FA6B2"/>
<rect x="211" y="68" width="27" height="2" rx="1" fill="#9FA6B2"/>
<rect x="211" y="81" width="23" height="2" rx="1" fill="#9FA6B2"/>
<rect x="211" y="94" width="20" height="2" rx="1" fill="#9FA6B2"/>
<rect x="211" y="107" width="23" height="2" rx="1" fill="#9FA6B2"/>
<rect y="101" width="280" height="1" fill="#E5E7EB"/>
</g>
<defs>
<filter id="filter0_dd" x="-6" y="23" width="292" height="100" filterUnits="userSpaceOnUse" color-interpolation-filters="sRGB">
<feFlood flood-opacity="0" result="BackgroundImageFix"/>
<feColorMatrix in="SourceAlpha" type="matrix" values="0 0 0 0 0 0 0 0 0 0 0 0 0 0 0 0 0 0 127 0"/>
<feOffset dy="3"/>
<feGaussianBlur stdDeviation="2.5"/>
<feColorMatrix type="matrix" values="0 0 0 0 0 0 0 0 0 0 0 0 0 0 0 0 0 0 0.04 0"/>
<feBlend mode="normal" in2="BackgroundImageFix" result="effect1_dropShadow"/>
<feColorMatrix in="SourceAlpha" type="matrix" values="0 0 0 0 0 0 0 0 0 0 0 0 0 0 0 0 0 0 127 0"/>
<feOffset dy="1"/>
<feGaussianBlur stdDeviation="1"/>
<feColorMatrix type="matrix" values="0 0 0 0 0 0 0 0 0 0 0 0 0 0 0 0 0 0 0.03 0"/>
<feBlend mode="normal" in2="effect1_dropShadow" result="effect2_dropShadow"/>
<feBlend mode="normal" in="SourceGraphic" in2="effect2_dropShadow" result="shape"/>
</filter>
<clipPath id="clip0">
<rect width="280" height="140" fill="white"/>
</clipPath>
</defs>
</svg>
